<svg xmlns="http://www.w3.org/2000/svg" xmlns:xlink="http://www.w3.org/1999/xlink" width="24" height="24" viewBox="0 0 24 24">
  <defs>
    <clipPath id="clip-path">
      <rect id="Rectangle_99" data-name="Rectangle 99" width="24" height="24" transform="translate(1033 814)" fill="#fff" stroke="#707070" stroke-width="1"/>
    </clipPath>
    <clipPath id="clip-icon-clock">
      <rect width="24" height="24"/>
    </clipPath>
  </defs>
  <g id="icon-clock" clip-path="url(#clip-icon-clock)">
    <g id="Mask_Group_25" data-name="Mask Group 25" transform="translate(-1033 -814)" clip-path="url(#clip-path)">
      <path id="clock-solid" d="M20,8A12,12,0,1,0,32,20,12,12,0,0,0,20,8Zm4.475,15.145h0l-.968,1.21a.774.774,0,0,1-1.088.121h0L19.177,22.07a1.935,1.935,0,0,1-.726-1.511V13.032a.774.774,0,0,1,.774-.774h1.548a.774.774,0,0,1,.774.774V20l2.806,2.056A.774.774,0,0,1,24.475,23.145Z" transform="translate(1025 806)" fill="#ffd167"/>
    </g>
  </g>
</svg>
