<svg xmlns="http://www.w3.org/2000/svg" xmlns:xlink="http://www.w3.org/1999/xlink" width="24" height="24" viewBox="0 0 24 24">
  <defs>
    <clipPath id="clip-icon-line">
      <rect width="24" height="24"/>
    </clipPath>
  </defs>
  <g id="icon-line" clip-path="url(#clip-icon-line)">
    <path id="line-brands" d="M14.577,41.225v3.809a.169.169,0,0,1-.171.171h-.611a.177.177,0,0,1-.139-.07l-1.746-2.357v2.261a.169.169,0,0,1-.171.171h-.611a.169.169,0,0,1-.171-.171V41.23a.169.169,0,0,1,.171-.171h.605a.162.162,0,0,1,.139.075l1.746,2.357V41.23a.169.169,0,0,1,.171-.171H14.4A.169.169,0,0,1,14.577,41.225Zm-4.393-.171H9.573a.169.169,0,0,0-.171.171v3.809a.169.169,0,0,0,.171.171h.611a.169.169,0,0,0,.171-.171V41.225A.173.173,0,0,0,10.184,41.053ZM8.711,44.246H7.044V41.225a.169.169,0,0,0-.171-.171H6.262a.169.169,0,0,0-.171.171v3.809a.158.158,0,0,0,.048.118.181.181,0,0,0,.118.048H8.705a.169.169,0,0,0,.171-.171v-.611A.172.172,0,0,0,8.711,44.246Zm9.08-3.193H15.343a.173.173,0,0,0-.171.171v3.809a.173.173,0,0,0,.171.171h2.448a.169.169,0,0,0,.171-.171v-.611a.169.169,0,0,0-.171-.171H16.125v-.643h1.666a.169.169,0,0,0,.171-.171v-.616a.169.169,0,0,0-.171-.171H16.125v-.643h1.666a.169.169,0,0,0,.171-.171v-.611A.18.18,0,0,0,17.791,41.053ZM24,36.377V51.661A4.363,4.363,0,0,1,19.623,56H4.339A4.367,4.367,0,0,1,0,51.623V36.339A4.367,4.367,0,0,1,4.377,32H19.661A4.363,4.363,0,0,1,24,36.377Zm-3.3,6.568c0-3.911-3.921-7.093-8.737-7.093s-8.737,3.182-8.737,7.093c0,3.5,3.107,6.439,7.307,7,1.023.22.905.595.675,1.971-.038.22-.177.862.755.471a28.237,28.237,0,0,0,6.868-5.073A6.329,6.329,0,0,0,20.7,42.944Z" transform="translate(0 -32)" fill="#b9bbbe"/>
  </g>
</svg>
