<svg xmlns="http://www.w3.org/2000/svg" xmlns:xlink="http://www.w3.org/1999/xlink" width="40" height="40" viewBox="0 0 40 40">
  <defs>
    <clipPath id="clip-path">
      <rect id="Rectangle_78" data-name="Rectangle 78" width="40" height="40" transform="translate(580 -115)" fill="none" stroke="#707070" stroke-width="1"/>
    </clipPath>
    <clipPath id="clip-icon-hotel">
      <rect width="40" height="40"/>
    </clipPath>
  </defs>
  <g id="icon-hotel" clip-path="url(#clip-icon-hotel)">
    <g id="Mask_Group_17" data-name="Mask Group 17" transform="translate(-580 115)" clip-path="url(#clip-path)">
      <g id="Group_85" data-name="Group 85">
        <g id="Ellipse_45" data-name="Ellipse 45" transform="translate(588 -106)" fill="#ffaf34" stroke="#ffd167" stroke-width="1">
          <circle cx="2.5" cy="2.5" r="2.5" stroke="none"/>
          <circle cx="2.5" cy="2.5" r="2" fill="none"/>
        </g>
        <g id="Ellipse_46" data-name="Ellipse 46" transform="translate(607 -106)" fill="#ffaf34" stroke="#ffd167" stroke-width="1">
          <circle cx="2.5" cy="2.5" r="2.5" stroke="none"/>
          <circle cx="2.5" cy="2.5" r="2" fill="none"/>
        </g>
        <line id="Line_18" data-name="Line 18" y2="16" transform="translate(600.343 -112.657) rotate(-45)" fill="none" stroke="#ffaf34" stroke-width="1"/>
        <line id="Line_19" data-name="Line 19" y2="16" transform="translate(599.657 -112.657) rotate(45)" fill="none" stroke="#ffaf34" stroke-width="1"/>
        <g id="Rectangle_76" data-name="Rectangle 76" transform="translate(583 -104)" fill="#ffaf34" stroke="#ffd167" stroke-width="2">
          <rect width="34" height="26" rx="4" stroke="none"/>
          <rect x="1" y="1" width="32" height="24" rx="3" fill="none"/>
        </g>
        <path id="Path_196" data-name="Path 196" d="M-5.565-6.9a.088.088,0,0,1,.1-.1h.76a.088.088,0,0,1,.1.1V-.1a.088.088,0,0,1-.1.1h-.76a.088.088,0,0,1-.1-.1V-3.07a.035.035,0,0,0-.04-.04h-2.85a.035.035,0,0,0-.04.04V-.1a.088.088,0,0,1-.1.1h-.76a.088.088,0,0,1-.1-.1V-6.9a.088.088,0,0,1,.1-.1h.76a.088.088,0,0,1,.1.1v2.92a.035.035,0,0,0,.04.04H-5.6a.035.035,0,0,0,.04-.04ZM.275.09a2.69,2.69,0,0,1-1.29-.3,2.145,2.145,0,0,1-.87-.845,2.494,2.494,0,0,1-.31-1.255V-4.69a2.466,2.466,0,0,1,.31-1.25,2.155,2.155,0,0,1,.87-.84,2.69,2.69,0,0,1,1.29-.3,2.712,2.712,0,0,1,1.3.3,2.155,2.155,0,0,1,.87.84,2.466,2.466,0,0,1,.31,1.25v2.38a2.494,2.494,0,0,1-.31,1.255,2.145,2.145,0,0,1-.87.845A2.712,2.712,0,0,1,.275.09Zm0-.83a1.488,1.488,0,0,0,1.1-.42A1.5,1.5,0,0,0,1.8-2.27V-4.7a1.531,1.531,0,0,0-.42-1.125,1.478,1.478,0,0,0-1.1-.425A1.461,1.461,0,0,0-.82-5.825,1.541,1.541,0,0,0-1.235-4.7v2.43A1.511,1.511,0,0,0-.82-1.16,1.471,1.471,0,0,0,.275-.74Zm7.1.82A3.4,3.4,0,0,1,6.04-.16a1.956,1.956,0,0,1-.87-.68,1.763,1.763,0,0,1-.3-1.03v-.29a.088.088,0,0,1,.1-.1H5.7a.088.088,0,0,1,.1.1v.24a1.009,1.009,0,0,0,.44.84,1.976,1.976,0,0,0,1.21.33,1.6,1.6,0,0,0,1.04-.29.939.939,0,0,0,.35-.76.81.81,0,0,0-.18-.53,1.715,1.715,0,0,0-.525-.4A10.038,10.038,0,0,0,7.125-3.18,10.155,10.155,0,0,1,5.97-3.69,2.136,2.136,0,0,1,5.265-4.3a1.536,1.536,0,0,1-.28-.945A1.631,1.631,0,0,1,5.6-6.59a2.6,2.6,0,0,1,1.665-.49,3.163,3.163,0,0,1,1.3.25,2,2,0,0,1,.865.7,1.809,1.809,0,0,1,.305,1.04v.2a.088.088,0,0,1-.1.1h-.75a.088.088,0,0,1-.1-.1v-.15a1.079,1.079,0,0,0-.415-.865A1.739,1.739,0,0,0,7.225-6.25a1.574,1.574,0,0,0-.96.255.863.863,0,0,0-.34.735.831.831,0,0,0,.17.54,1.478,1.478,0,0,0,.505.375q.335.165,1.025.425a11.341,11.341,0,0,1,1.15.515,2.2,2.2,0,0,1,.73.62,1.542,1.542,0,0,1,.29.955,1.691,1.691,0,0,1-.645,1.4A2.771,2.771,0,0,1,7.375.08ZM-4.44,2a.088.088,0,0,1,.1.1v.64a.088.088,0,0,1-.1.1H-6.36a.035.035,0,0,0-.04.04V8.9a.088.088,0,0,1-.1.1h-.76a.088.088,0,0,1-.1-.1V2.88a.035.035,0,0,0-.04-.04H-9.23a.088.088,0,0,1-.1-.1V2.1a.088.088,0,0,1,.1-.1Zm6.94.73a.088.088,0,0,1-.1.1H-1.15a.035.035,0,0,0-.04.04V5.02a.035.035,0,0,0,.04.04H1.29a.088.088,0,0,1,.1.1v.63a.088.088,0,0,1-.1.1H-1.15a.035.035,0,0,0-.04.04v2.2a.035.035,0,0,0,.04.04H2.4a.088.088,0,0,1,.1.1V8.9a.088.088,0,0,1-.1.1H-2.05a.088.088,0,0,1-.1-.1V2.1a.088.088,0,0,1,.1-.1H2.4a.088.088,0,0,1,.1.1ZM4.93,9a.088.088,0,0,1-.1-.1V2.1a.088.088,0,0,1,.1-.1h.76a.088.088,0,0,1,.1.1V8.13a.035.035,0,0,0,.04.04H9.28a.088.088,0,0,1,.1.1V8.9a.088.088,0,0,1-.1.1Z" transform="translate(600 -92)" fill="#fff"/>
        <circle id="Ellipse_47" data-name="Ellipse 47" cx="2" cy="2" r="2" transform="translate(598 -115)" fill="#ffaf34"/>
      </g>
    </g>
  </g>
</svg>
