<svg xmlns="http://www.w3.org/2000/svg" xmlns:xlink="http://www.w3.org/1999/xlink" width="40" height="40" viewBox="0 0 40 40">
  <defs>
    <clipPath id="clip-path">
      <rect id="Rectangle_183" data-name="Rectangle 183" width="40" height="40" transform="translate(839 131)" fill="none" stroke="#707070" stroke-width="1"/>
    </clipPath>
    <clipPath id="clip-path-2">
      <path id="Intersection_10" data-name="Intersection 10" d="M3,17a17,17,0,1,1,34,0Z" transform="translate(812 -50)" fill="#b9bbbe"/>
    </clipPath>
    <clipPath id="clip-icon-food">
      <rect width="40" height="40"/>
    </clipPath>
  </defs>
  <g id="icon-food" clip-path="url(#clip-icon-food)">
    <g id="Mask_Group_41" data-name="Mask Group 41" transform="translate(-839 -131)" clip-path="url(#clip-path)">
      <g id="Group_183" data-name="Group 183">
        <g id="Group_182" data-name="Group 182" transform="translate(57 189.305)">
          <g id="Group_181" data-name="Group 181" transform="translate(3.308 -114.001) rotate(8)">
            <line id="Line_51" data-name="Line 51" y1="3" transform="translate(802 -49)" fill="none" stroke="#ffaf34" stroke-width="1"/>
            <line id="Line_52" data-name="Line 52" x2="4" transform="translate(800 -49)" fill="none" stroke="#ffaf34" stroke-width="1"/>
            <path id="Intersection_8" data-name="Intersection 8" d="M3,17a17,17,0,1,1,34,0Z" transform="translate(782 -47)" fill="#ffaf34"/>
            <g id="Mask_Group_40" data-name="Mask Group 40" transform="translate(-30 3)" clip-path="url(#clip-path-2)">
              <path id="Intersection_9" data-name="Intersection 9" d="M3,18C3,8.059,10.611,0,20,0S37,8.059,37,18Z" transform="translate(816 -51)" fill="#ffd167"/>
            </g>
            <path id="Path_25" data-name="Path 25" d="M835.124-43.385a9.754,9.754,0,0,0-4.832,5.968" transform="translate(-37)" fill="none" stroke="#fff" stroke-linecap="round" stroke-width="1"/>
          </g>
          <rect id="Rectangle_182" data-name="Rectangle 182" width="40" height="3" rx="1.5" transform="translate(782 -30)" fill="#ffaf34"/>
          <path id="Path_26" data-name="Path 26" d="M0,0H34L32,4H2Z" transform="translate(785 -27)" fill="#ffd167"/>
        </g>
        <path id="Path_27" data-name="Path 27" d="M849.145,134.32s-1.451,1.973,0,3.6a2.783,2.783,0,0,1,0,3.481" transform="translate(-4 2)" fill="none" stroke="#ff8c34" stroke-linecap="round" stroke-linejoin="round" stroke-width="1"/>
        <path id="Path_28" data-name="Path 28" d="M849.145,134.32s-1.451,1.973,0,3.6a2.783,2.783,0,0,1,0,3.481" transform="translate(0 -1)" fill="none" stroke="#ff8c34" stroke-linecap="round" stroke-linejoin="round" stroke-width="1"/>
      </g>
    </g>
  </g>
</svg>
